<svg version="1.1" xmlns="http://www.w3.org/2000/svg" xmlns:xlink="http://www.w3.org/1999/xlink" width="24px" height="24px" viewBox="0,0,256,256"><g fill="#9536a7" fill-rule="nonzero" stroke="none" stroke-width="1" stroke-linecap="butt" stroke-linejoin="miter" stroke-miterlimit="10" stroke-dasharray="" stroke-dashoffset="0" font-family="none" font-weight="none" font-size="none" text-anchor="none" style="mix-blend-mode: normal"><g transform="translate(-5.33333,245.33333) scale(0.26667,0.26667)"><path d="M520,-40v-123l221,-220c6,-6 12.66667,-10.33333 20,-13c7.33333,-2.66667 14.66667,-4 22,-4c8,0 15.66667,1.5 23,4.5c7.33333,3 14,7.5 20,13.5l37,37c5.33333,6 9.5,12.66667 12.5,20c3,7.33333 4.5,14.66667 4.5,22c0,7.33333 -1.33333,14.83333 -4,22.5c-2.66667,7.66667 -7,14.5 -13,20.5l-220,220zM240,-560h360v-160h-360zM783,-264l37,-39l-37,-37l-38,38zM440,-120h-240c-22,0 -40.83333,-7.83333 -56.5,-23.5c-15.66667,-15.66667 -23.5,-34.5 -23.5,-56.5v-560c0,-22 7.83333,-40.83333 23.5,-56.5c15.66667,-15.66667 34.5,-23.5 56.5,-23.5h480l160,160v212c-12.66667,-5.33333 -25.83333,-8.83333 -39.5,-10.5c-13.66667,-1.66667 -27.16667,-1.5 -40.5,0.5c-13.33333,2 -26.33333,6.16667 -39,12.5c-12.66667,6.33333 -24.33333,14.5 -35,24.5l-86,86v-5c0,-33.33333 -11.66667,-61.66667 -35,-85c-23.33333,-23.33333 -51.66667,-35 -85,-35c-33.33333,0 -61.66667,11.66667 -85,35c-23.33333,23.33333 -35,51.66667 -35,85c0,33.33333 11.66667,61.66667 35,85c23.33333,23.33333 51.66667,35 85,35h4l-44,44z"></path></g></g></svg>