<svg version="1.1" xmlns="http://www.w3.org/2000/svg" xmlns:xlink="http://www.w3.org/1999/xlink" width="24px" height="24px" viewBox="0,0,256,256"><g fill="#7a1ebd" fill-rule="nonzero" stroke="none" stroke-width="1" stroke-linecap="butt" stroke-linejoin="miter" stroke-miterlimit="10" stroke-dasharray="" stroke-dashoffset="0" font-family="none" font-weight="none" font-size="none" text-anchor="none" style="mix-blend-mode: normal"><g transform="translate(0,256) scale(0.26667,0.26667)"><path d="M420,-360h120l-23,-129c13.33333,-6.66667 23.83333,-16.33333 31.5,-29c7.66667,-12.66667 11.5,-26.66667 11.5,-42c0,-22 -7.83333,-40.83333 -23.5,-56.5c-15.66667,-15.66667 -34.5,-23.5 -56.5,-23.5c-22,0 -40.83333,7.83333 -56.5,23.5c-15.66667,15.66667 -23.5,34.5 -23.5,56.5c0,15.33333 3.83333,29.33333 11.5,42c7.66667,12.66667 18.16667,22.33333 31.5,29zM480,-80c-92.66667,-23.33333 -169.16667,-76.5 -229.5,-159.5c-60.33333,-83 -90.5,-175.16667 -90.5,-276.5v-244l320,-120l320,120v244c0,101.33333 -30.16667,193.5 -90.5,276.5c-60.33333,83 -136.83333,136.16667 -229.5,159.5z"></path></g></g></svg>