<svg version="1.1" xmlns="http://www.w3.org/2000/svg" xmlns:xlink="http://www.w3.org/1999/xlink" width="24px" height="24px" viewBox="0,0,256,256"><g fill="#1cb1c5" fill-rule="nonzero" stroke="none" stroke-width="1" stroke-linecap="butt" stroke-linejoin="miter" stroke-miterlimit="10" stroke-dasharray="" stroke-dashoffset="0" font-family="none" font-weight="none" font-size="none" text-anchor="none" style="mix-blend-mode: normal"><g transform="translate(-5.33333,256) scale(0.26667,0.26667)"><path d="M696,-80l-56,-56l84,-84l-84,-84l56,-56l84,84l84,-84l56,56l-83,84l83,84l-56,56l-84,-83zM480,-80c-55.33333,0 -107.33333,-10.5 -156,-31.5c-48.66667,-21 -91,-49.5 -127,-85.5c-36,-36 -64.5,-78.33333 -85.5,-127c-21,-48.66667 -31.5,-100.66667 -31.5,-156c0,-55.33333 10.5,-107.33333 31.5,-156c21,-48.66667 49.5,-91 85.5,-127c36,-36 78.33333,-64.5 127,-85.5c48.66667,-21 100.66667,-31.5 156,-31.5c55.33333,0 107.33333,10.5 156,31.5c48.66667,21 91,49.5 127,85.5c36,36 64.5,78.33333 85.5,127c21,48.66667 31.5,100.66667 31.5,156c0,6.66667 -0.16667,13.33333 -0.5,20c-0.33333,6.66667 -0.83333,13.33333 -1.5,20h-81c1.33333,-6.66667 2.16667,-13.33333 2.5,-20c0.33333,-6.66667 0.5,-13.33333 0.5,-20c0,-13.33333 -0.83333,-26.66667 -2.5,-40c-1.66667,-13.33333 -4.16667,-26.66667 -7.5,-40h-136c2,13.33333 3.5,26.66667 4.5,40c1,13.33333 1.5,26.66667 1.5,40v20c0,6.66667 -0.33333,13.33333 -1,20h-80c0.66667,-6.66667 1,-13.33333 1,-20v-20c0,-13.33333 -0.5,-26.66667 -1.5,-40c-1,-13.33333 -2.5,-26.66667 -4.5,-40h-188c-2,13.33333 -3.5,26.66667 -4.5,40c-1,13.33333 -1.5,26.66667 -1.5,40c0,13.33333 0.5,26.66667 1.5,40c1,13.33333 2.5,26.66667 4.5,40h174v80h-156c8,28.66667 18.33333,56.16667 31,82.5c12.66667,26.33333 27.66667,51.5 45,75.5c12,0 23.83333,-0.66667 35.5,-2c11.66667,-1.33333 23.5,-2.66667 35.5,-4l18,78c-15.33333,3.33333 -30.16667,5.83333 -44.5,7.5c-14.33333,1.66667 -29.16667,2.5 -44.5,2.5zM170,-400h136c-2,-13.33333 -3.5,-26.66667 -4.5,-40c-1,-13.33333 -1.5,-26.66667 -1.5,-40c0,-13.33333 0.5,-26.66667 1.5,-40c1,-13.33333 2.5,-26.66667 4.5,-40h-136c-3.33333,13.33333 -5.83333,26.66667 -7.5,40c-1.66667,13.33333 -2.5,26.66667 -2.5,40c0,13.33333 0.83333,26.66667 2.5,40c1.66667,13.33333 4.16667,26.66667 7.5,40zM204,-640h118c6,-24.66667 13.5,-48.83333 22.5,-72.5c9,-23.66667 19.5,-46.83333 31.5,-69.5c-36.66667,12 -69.66667,30.16667 -99,54.5c-29.33333,24.33333 -53.66667,53.5 -73,87.5zM376,-178c-12,-22.66667 -22.5,-45.83333 -31.5,-69.5c-9,-23.66667 -16.5,-47.83333 -22.5,-72.5h-118c19.33333,34 43.66667,63.16667 73,87.5c29.33333,24.33333 62.33333,42.5 99,54.5zM404,-640h152c-8,-28.66667 -18.33333,-56.16667 -31,-82.5c-12.66667,-26.33333 -27.66667,-51.5 -45,-75.5c-17.33333,24 -32.33333,49.16667 -45,75.5c-12.66667,26.33333 -23,53.83333 -31,82.5zM638,-640h118c-19.33333,-34 -43.66667,-63.16667 -73,-87.5c-29.33333,-24.33333 -62.33333,-42.5 -99,-54.5c12,22.66667 22.5,45.83333 31.5,69.5c9,23.66667 16.5,47.83333 22.5,72.5z"></path></g></g></svg>