<svg version="1.1" xmlns="http://www.w3.org/2000/svg" xmlns:xlink="http://www.w3.org/1999/xlink" width="640px" height="640px" viewBox="0,0,256,256"><g fill="#7a1ebd" fill-rule="nonzero" stroke="none" stroke-width="1" stroke-linecap="butt" stroke-linejoin="miter" stroke-miterlimit="10" stroke-dasharray="" stroke-dashoffset="0" font-family="none" font-weight="none" font-size="none" text-anchor="none" style="mix-blend-mode: normal"><g transform="scale(0.4,0.4)"><path d="M64,320c0,-46.6 12.5,-90.4 34.3,-128.9l109.8,191.2c21.9,39.2 63.8,65.7 111.9,65.7c14.3,0 27.1,-2.3 40.8,-6.6l-76.3,132.2c-124.6,-17.3 -220.5,-124.3 -220.5,-253.6zM429.1,385.6c12.3,-19.2 18.9,-42.5 18.9,-65.6c0,-38.2 -16.8,-72.5 -43.3,-96h152.7c12,29.6 18.6,62.1 18.6,96c0,141.4 -114.6,255.1 -256,256zM541.8,192h-221.8c-62.9,0 -113.7,44.1 -125.5,102.7l-76.3,-132.2c46.8,-60 119.8,-98.5 201.8,-98.5c94.8,0 177.5,51.5 221.8,128zM408,320c0,48.6 -39.4,88 -88,88c-48.6,0 -88,-39.4 -88,-88c0,-48.6 39.4,-88 88,-88c48.6,0 88,39.4 88,88z"></path></g></g></svg>