<svg version="1.1" xmlns="http://www.w3.org/2000/svg" xmlns:xlink="http://www.w3.org/1999/xlink" width="24px" height="24px" viewBox="0,0,256,256"><g fill="#7a1ebd" fill-rule="nonzero" stroke="none" stroke-width="1" stroke-linecap="butt" stroke-linejoin="miter" stroke-miterlimit="10" stroke-dasharray="" stroke-dashoffset="0" font-family="none" font-weight="none" font-size="none" text-anchor="none" style="mix-blend-mode: normal"><g transform="translate(-10.66667,245.33333) scale(0.26667,0.26667)"><path d="M472,-120c-28,-0.66667 -62.16667,-3.83333 -102.5,-9.5c-40.33333,-5.66667 -79,-14.83333 -116,-27.5c-37,-12.66667 -68.5,-29.16667 -94.5,-49.5c-26,-20.33333 -39,-44.83333 -39,-73.5v-100c0,24 9.5,45.16667 28.5,63.5c19,18.33333 42.83333,33.66667 71.5,46c28.66667,12.33333 60.16667,22.33333 94.5,30c34.33333,7.66667 66.5,13.16667 96.5,16.5c6,19.33333 14.16667,37.83333 24.5,55.5c10.33333,17.66667 22.5,33.83333 36.5,48.5zM401,-325c-30,-3.33333 -61.5,-8.83333 -94.5,-16.5c-33,-7.66667 -63.33333,-17.83333 -91,-30.5c-27.66667,-12.66667 -50.5,-27.83333 -68.5,-45.5c-18,-17.66667 -27,-38.5 -27,-62.5v-100c0,25.33333 10.5,47.33333 31.5,66c21,18.66667 47,34.5 78,47.5c31,13 64.66667,23 101,30c36.33333,7 69.5,11.83333 99.5,14.5c-8,14.66667 -14.5,30.16667 -19.5,46.5c-5,16.33333 -8.16667,33.16667 -9.5,50.5zM480,-520c-99.33333,0 -184.16667,-15.66667 -254.5,-47c-70.33333,-31.33333 -105.5,-69 -105.5,-113c0,-44 35.16667,-81.66667 105.5,-113c70.33333,-31.33333 155.16667,-47 254.5,-47c100,0 185,15.66667 255,47c70,31.33333 105,69 105,113c0,44 -35,81.66667 -105,113c-70,31.33333 -155,47 -255,47zM864,-40l-108,-108c-14.66667,8.66667 -30,15.5 -46,20.5c-16,5 -32.66667,7.5 -50,7.5c-50,0 -92.5,-17.5 -127.5,-52.5c-35,-35 -52.5,-77.5 -52.5,-127.5c0,-50 17.5,-92.5 52.5,-127.5c35,-35 77.5,-52.5 127.5,-52.5c50,0 92.5,17.5 127.5,52.5c35,35 52.5,77.5 52.5,127.5c0,17.33333 -2.5,34 -7.5,50c-5,16 -11.83333,31.33333 -20.5,46l108,108zM731,-229c19.33333,-19.33333 29,-43 29,-71c0,-28 -9.66667,-51.66667 -29,-71c-19.33333,-19.33333 -43,-29 -71,-29c-28,0 -51.66667,9.66667 -71,29c-19.33333,19.33333 -29,43 -29,71c0,28 9.66667,51.66667 29,71c19.33333,19.33333 43,29 71,29c28,0 51.66667,-9.66667 71,-29z"></path></g></g></svg>