<svg version="1.1" xmlns="http://www.w3.org/2000/svg" xmlns:xlink="http://www.w3.org/1999/xlink" width="24px" height="24px" viewBox="0,0,256,256"><g fill="#e90f0f" fill-rule="nonzero" stroke="none" stroke-width="1" stroke-linecap="butt" stroke-linejoin="miter" stroke-miterlimit="10" stroke-dasharray="" stroke-dashoffset="0" font-family="none" font-weight="none" font-size="none" text-anchor="none" style="mix-blend-mode: normal"><g transform="translate(0,255.6) scale(0.26667,0.26667)"><path d="M260,-160c-60.66667,0 -112.5,-21 -155.5,-63c-43,-42 -64.5,-93.33333 -64.5,-154c0,-52 15.66667,-98.33333 47,-139c31.33333,-40.66667 72.33333,-66.66667 123,-78c15.33333,-54 43.83333,-99.33333 85.5,-136c41.66667,-36.66667 89.83333,-59 144.5,-67v323l-64,-62l-56,56l160,160l160,-160l-56,-56l-64,62v-323c68.66667,9.33333 125.83333,40.16667 171.5,92.5c45.66667,52.33333 68.5,113.83333 68.5,184.5c46,5.33333 84.16667,25.16667 114.5,59.5c30.33333,34.33333 45.5,74.5 45.5,120.5c0,50 -17.5,92.5 -52.5,127.5c-35,35 -77.5,52.5 -127.5,52.5z"></path></g></g></svg>