<svg version="1.1" xmlns="http://www.w3.org/2000/svg" xmlns:xlink="http://www.w3.org/1999/xlink" width="24px" height="24px" viewBox="0,0,256,256"><g fill="#7a1ebd" fill-rule="nonzero" stroke="none" stroke-width="1" stroke-linecap="butt" stroke-linejoin="miter" stroke-miterlimit="10" stroke-dasharray="" stroke-dashoffset="0" font-family="none" font-weight="none" font-size="none" text-anchor="none" style="mix-blend-mode: normal"><g transform="translate(-0.58105,255.92381) scale(0.26667,0.26667)"><path d="M481,-781c70.66667,0 137.33333,15.16667 200,45.5c62.66667,30.33333 115,74.16667 157,131.5c4.66667,6 6.16667,11.33333 4.5,16c-1.66667,4.66667 -4.5,8.66667 -8.5,12c-4,3.33333 -8.66667,4.83333 -14,4.5c-5.33333,-0.33333 -10,-3.16667 -14,-8.5c-36.66667,-52 -83.83333,-91.83333 -141.5,-119.5c-57.66667,-27.66667 -118.83333,-41.5 -183.5,-41.5c-64.66667,0 -125.33333,13.83333 -182,41.5c-56.66667,27.66667 -103.66667,67.5 -141,119.5c-4,6 -8.66667,9.33333 -14,10c-5.33333,0.66667 -10,-0.66667 -14,-4c-4.66667,-3.33333 -7.5,-7.5 -8.5,-12.5c-1,-5 0.5,-10.16667 4.5,-15.5c41.33333,-56.66667 93.16667,-100.66667 155.5,-132c62.33333,-31.33333 128.83333,-47 199.5,-47zM481,-687c90,0 167.33333,30 232,90c64.66667,60 97,134.33333 97,223c0,33.33333 -11.83333,61.16667 -35.5,83.5c-23.66667,22.33333 -52.5,33.5 -86.5,33.5c-34,0 -63.16667,-11.16667 -87.5,-33.5c-24.33333,-22.33333 -36.5,-50.16667 -36.5,-83.5c0,-22 -8.16667,-40.5 -24.5,-55.5c-16.33333,-15 -35.83333,-22.5 -58.5,-22.5c-22.66667,0 -42.16667,7.5 -58.5,22.5c-16.33333,15 -24.5,33.5 -24.5,55.5c0,64.66667 19.16667,118.66667 57.5,162c38.33333,43.33333 87.83333,73.66667 148.5,91c6,2 10,5.33333 12,10c2,4.66667 2.33333,9.66667 1,15c-1.33333,4.66667 -4,8.66667 -8,12c-4,3.33333 -9,4.33333 -15,3c-69.33333,-17.33333 -126,-51.83333 -170,-103.5c-44,-51.66667 -66,-114.83333 -66,-189.5c0,-33.33333 12,-61.33333 36,-84c24,-22.66667 53,-34 87,-34c34,0 63,11.33333 87,34c24,22.66667 36,50.66667 36,84c0,22 8.33333,40.5 25,55.5c16.66667,15 36.33333,22.5 59,22.5c22.66667,0 42,-7.5 58,-22.5c16,-15 24,-33.5 24,-55.5c0,-77.33333 -28.33333,-142.33333 -85,-195c-56.66667,-52.66667 -124.33333,-79 -203,-79c-78.66667,0 -146.33333,26.33333 -203,79c-56.66667,52.66667 -85,117.33333 -85,194c0,16 1.5,36 4.5,60c3,24 10.16667,52 21.5,84c2,6 1.83333,11.33333 -0.5,16c-2.33333,4.66667 -6.16667,8 -11.5,10c-5.33333,2 -10.5,1.83333 -15.5,-0.5c-5,-2.33333 -8.5,-6.16667 -10.5,-11.5c-10,-26 -17.16667,-51.83333 -21.5,-77.5c-4.33333,-25.66667 -6.5,-52.16667 -6.5,-79.5c0,-88.66667 32.16667,-163 96.5,-223c64.33333,-60 141.16667,-90 230.5,-90zM481,-879c42.66667,0 84.33333,5.16667 125,15.5c40.66667,10.33333 80,25.16667 118,44.5c6,3.33333 9.5,7.33333 10.5,12c1,4.66667 0.5,9.33333 -1.5,14c-2,4.66667 -5.33333,8.33333 -10,11c-4.66667,2.66667 -10.33333,2.33333 -17,-1c-35.33333,-18 -71.83333,-31.83333 -109.5,-41.5c-37.66667,-9.66667 -76.16667,-14.5 -115.5,-14.5c-38.66667,0 -76.66667,4.5 -114,13.5c-37.33333,9 -73,23.16667 -107,42.5c-5.33333,3.33333 -10.66667,4.16667 -16,2.5c-5.33333,-1.66667 -9.33333,-5.16667 -12,-10.5c-2.66667,-5.33333 -3.33333,-10.16667 -2,-14.5c1.33333,-4.33333 4.66667,-8.16667 10,-11.5c37.33333,-20 76.33333,-35.33333 117,-46c40.66667,-10.66667 82,-16 124,-16zM481,-590c62,0 115.33333,20.83333 160,62.5c44.66667,41.66667 67,92.83333 67,153.5c0,6 -1.83333,10.83333 -5.5,14.5c-3.66667,3.66667 -8.5,5.5 -14.5,5.5c-5.33333,0 -10,-1.83333 -14,-5.5c-4,-3.66667 -6,-8.5 -6,-14.5c0,-50 -18.5,-91.83333 -55.5,-125.5c-37,-33.66667 -80.83333,-50.5 -131.5,-50.5c-50.66667,0 -94.16667,16.83333 -130.5,50.5c-36.33333,33.66667 -54.5,75.5 -54.5,125.5c0,54 9.33333,99.83333 28,137.5c18.66667,37.66667 46,75.5 82,113.5c4,4 6,8.66667 6,14c0,5.33333 -2,10 -6,14c-4,4 -8.66667,6 -14,6c-5.33333,0 -10,-2 -14,-6c-39.33333,-41.33333 -69.5,-83.5 -90.5,-126.5c-21,-43 -31.5,-93.83333 -31.5,-152.5c0,-60.66667 22,-111.83333 66,-153.5c44,-41.66667 97,-62.5 159,-62.5zM480,-394c6,0 10.83333,2 14.5,6c3.66667,4 5.5,8.66667 5.5,14c0,50 18,91 54,123c36,32 78,48 126,48c4,0 9.66667,-0.33333 17,-1c7.33333,-0.66667 15,-1.66667 23,-3c6,-1.33333 11.16667,-0.5 15.5,2.5c4.33333,3 7.16667,7.5 8.5,13.5c1.33333,5.33333 0.33333,10 -3,14c-3.33333,4 -7.66667,6.66667 -13,8c-12,3.33333 -22.5,5.16667 -31.5,5.5c-9,0.33333 -14.5,0.5 -16.5,0.5c-59.33333,0 -110.83333,-20 -154.5,-60c-43.66667,-40 -65.5,-90.33333 -65.5,-151c0,-5.33333 1.83333,-10 5.5,-14c3.66667,-4 8.5,-6 14.5,-6z"></path></g></g></svg>