<svg version="1.1" xmlns="http://www.w3.org/2000/svg" xmlns:xlink="http://www.w3.org/1999/xlink" width="24px" height="24px" viewBox="0,0,256,256"><g fill="#7a1ebd" fill-rule="nonzero" stroke="none" stroke-width="1" stroke-linecap="butt" stroke-linejoin="miter" stroke-miterlimit="10" stroke-dasharray="" stroke-dashoffset="0" font-family="none" font-weight="none" font-size="none" text-anchor="none" style="mix-blend-mode: normal"><g transform="translate(0,256) scale(0.26667,0.26667)"><path d="M423.5,-103.5c-15.66667,-15.66667 -23.5,-34.5 -23.5,-56.5c0,-14 3.66667,-27 11,-39c7.33333,-12 17,-21.66667 29,-29v-92h-120c-22,0 -40.83333,-7.83333 -56.5,-23.5c-15.66667,-15.66667 -23.5,-34.5 -23.5,-56.5v-92c-12,-6 -21.66667,-15 -29,-27c-7.33333,-12 -11,-25.66667 -11,-41c0,-22 7.83333,-40.83333 23.5,-56.5c15.66667,-15.66667 34.5,-23.5 56.5,-23.5c22,0 40.83333,7.83333 56.5,23.5c15.66667,15.66667 23.5,34.5 23.5,56.5c0,15.33333 -3.66667,28.66667 -11,40c-7.33333,11.33333 -17,20.66667 -29,28v92h120v-320h-80l120,-160l120,160h-80v320h120v-80h-40v-160h160v160h-40v80c0,22 -7.83333,40.83333 -23.5,56.5c-15.66667,15.66667 -34.5,23.5 -56.5,23.5h-120v92c12.66667,6.66667 22.5,16 29.5,28c7,12 10.5,25.33333 10.5,40c0,22 -7.83333,40.83333 -23.5,56.5c-15.66667,15.66667 -34.5,23.5 -56.5,23.5c-22,0 -40.83333,-7.83333 -56.5,-23.5z"></path></g></g></svg>