<svg version="1.1" xmlns="http://www.w3.org/2000/svg" xmlns:xlink="http://www.w3.org/1999/xlink" width="24px" height="24px" viewBox="0,0,256,256"><g fill="#7a1ebd" fill-rule="nonzero" stroke="none" stroke-width="1" stroke-linecap="butt" stroke-linejoin="miter" stroke-miterlimit="10" stroke-dasharray="" stroke-dashoffset="0" font-family="none" font-weight="none" font-size="none" text-anchor="none" style="mix-blend-mode: normal"><g transform="translate(0,256) scale(0.26667,0.26667)"><path d="M480,-153l224,-137c-33.33333,-23.33333 -69,-40.83333 -107,-52.5c-38,-11.66667 -77,-17.5 -117,-17.5c-40,0 -79.16667,5.83333 -117.5,17.5c-38.33333,11.66667 -74.5,28.83333 -108.5,51.5zM579,-481c27.33333,-27.33333 41,-60.33333 41,-99c0,-38.66667 -13.66667,-71.66667 -41,-99c-27.33333,-27.33333 -60.33333,-41 -99,-41c-38.66667,0 -71.66667,13.66667 -99,41c-27.33333,27.33333 -41,60.33333 -41,99c0,38.66667 13.66667,71.66667 41,99c27.33333,27.33333 60.33333,41 99,41c38.66667,0 71.66667,-13.66667 99,-41zM480,-60l-360,-220v-400l360,-220l360,220v400z"></path></g></g></svg>