<svg version="1.1" xmlns="http://www.w3.org/2000/svg" xmlns:xlink="http://www.w3.org/1999/xlink" width="24px" height="24px" viewBox="0,0,256,256"><g fill="#7a1ebd" fill-rule="nonzero" stroke="none" stroke-width="1" stroke-linecap="butt" stroke-linejoin="miter" stroke-miterlimit="10" stroke-dasharray="" stroke-dashoffset="0" font-family="none" font-weight="none" font-size="none" text-anchor="none" style="mix-blend-mode: normal"><g transform="translate(0,256) scale(0.26667,0.26667)"><path d="M234,-276c34,-26 72,-46.5 114,-61.5c42,-15 86,-22.5 132,-22.5c46,0 90,7.5 132,22.5c42,15 80,35.5 114,61.5c23.33333,-27.33333 41.5,-58.33333 54.5,-93c13,-34.66667 19.5,-71.66667 19.5,-111c0,-88.66667 -31.16667,-164.16667 -93.5,-226.5c-62.33333,-62.33333 -137.83333,-93.5 -226.5,-93.5c-88.66667,0 -164.16667,31.16667 -226.5,93.5c-62.33333,62.33333 -93.5,137.83333 -93.5,226.5c0,39.33333 6.5,76.33333 19.5,111c13,34.66667 31.16667,65.66667 54.5,93zM380.5,-480.5c-27,-27 -40.5,-60.16667 -40.5,-99.5c0,-39.33333 13.5,-72.5 40.5,-99.5c27,-27 60.16667,-40.5 99.5,-40.5c39.33333,0 72.5,13.5 99.5,40.5c27,27 40.5,60.16667 40.5,99.5c0,39.33333 -13.5,72.5 -40.5,99.5c-27,27 -60.16667,40.5 -99.5,40.5c-39.33333,0 -72.5,-13.5 -99.5,-40.5zM480,-80c-55.33333,0 -107.33333,-10.5 -156,-31.5c-48.66667,-21 -91,-49.5 -127,-85.5c-36,-36 -64.5,-78.33333 -85.5,-127c-21,-48.66667 -31.5,-100.66667 -31.5,-156c0,-55.33333 10.5,-107.33333 31.5,-156c21,-48.66667 49.5,-91 85.5,-127c36,-36 78.33333,-64.5 127,-85.5c48.66667,-21 100.66667,-31.5 156,-31.5c55.33333,0 107.33333,10.5 156,31.5c48.66667,21 91,49.5 127,85.5c36,36 64.5,78.33333 85.5,127c21,48.66667 31.5,100.66667 31.5,156c0,55.33333 -10.5,107.33333 -31.5,156c-21,48.66667 -49.5,91 -85.5,127c-36,36 -78.33333,64.5 -127,85.5c-48.66667,21 -100.66667,31.5 -156,31.5z"></path></g></g></svg>