<svg version="1.1" xmlns="http://www.w3.org/2000/svg" xmlns:xlink="http://www.w3.org/1999/xlink" width="24px" height="24px" viewBox="0,0,256,256"><g fill="#7a1ebd" fill-rule="nonzero" stroke="none" stroke-width="1" stroke-linecap="butt" stroke-linejoin="miter" stroke-miterlimit="10" stroke-dasharray="" stroke-dashoffset="0" font-family="none" font-weight="none" font-size="none" text-anchor="none" style="mix-blend-mode: normal"><g transform="translate(0,256) scale(0.26667,0.26667)"><path d="M160,-80c-22,0 -40.83333,-7.83333 -56.5,-23.5c-15.66667,-15.66667 -23.5,-34.5 -23.5,-56.5v-440c0,-22 7.83333,-40.83333 23.5,-56.5c15.66667,-15.66667 34.5,-23.5 56.5,-23.5h200v-120c0,-22 7.83333,-40.83333 23.5,-56.5c15.66667,-15.66667 34.5,-23.5 56.5,-23.5h80c22,0 40.83333,7.83333 56.5,23.5c15.66667,15.66667 23.5,34.5 23.5,56.5v120h200c22,0 40.83333,7.83333 56.5,23.5c15.66667,15.66667 23.5,34.5 23.5,56.5v440c0,22 -7.83333,40.83333 -23.5,56.5c-15.66667,15.66667 -34.5,23.5 -56.5,23.5zM240,-240h240v-18c0,-11.33333 -3.16667,-21.83333 -9.5,-31.5c-6.33333,-9.66667 -15.16667,-17.16667 -26.5,-22.5c-13.33333,-6 -26.83333,-10.5 -40.5,-13.5c-13.66667,-3 -28.16667,-4.5 -43.5,-4.5c-15.33333,0 -29.83333,1.5 -43.5,4.5c-13.66667,3 -27.16667,7.5 -40.5,13.5c-11.33333,5.33333 -20.16667,12.83333 -26.5,22.5c-6.33333,9.66667 -9.5,20.16667 -9.5,31.5zM560,-300h160v-60h-160zM402.5,-377.5c11.66667,-11.66667 17.5,-25.83333 17.5,-42.5c0,-16.66667 -5.83333,-30.83333 -17.5,-42.5c-11.66667,-11.66667 -25.83333,-17.5 -42.5,-17.5c-16.66667,0 -30.83333,5.83333 -42.5,17.5c-11.66667,11.66667 -17.5,25.83333 -17.5,42.5c0,16.66667 5.83333,30.83333 17.5,42.5c11.66667,11.66667 25.83333,17.5 42.5,17.5c16.66667,0 30.83333,-5.83333 42.5,-17.5zM560,-420h160v-60h-160zM440,-600h80v-200h-80z"></path></g></g></svg>