<svg version="1.1" xmlns="http://www.w3.org/2000/svg" xmlns:xlink="http://www.w3.org/1999/xlink" width="24px" height="24px" viewBox="0,0,256,256"><g fill="#7a1ebd" fill-rule="nonzero" stroke="none" stroke-width="1" stroke-linecap="butt" stroke-linejoin="miter" stroke-miterlimit="10" stroke-dasharray="" stroke-dashoffset="0" font-family="none" font-weight="none" font-size="none" text-anchor="none" style="mix-blend-mode: normal"><g transform="translate(0,261.33333) scale(0.26667,0.26667)"><path d="M240,-320c-22,0 -40.83333,-7.83333 -56.5,-23.5c-15.66667,-15.66667 -23.5,-34.5 -23.5,-56.5c0,-22 7.83333,-40.83333 23.5,-56.5c15.66667,-15.66667 34.5,-23.5 56.5,-23.5c22,0 40.83333,7.83333 56.5,23.5c15.66667,15.66667 23.5,34.5 23.5,56.5c0,22 -7.83333,40.83333 -23.5,56.5c-15.66667,15.66667 -34.5,23.5 -56.5,23.5zM720,-320c-22,0 -40.83333,-7.83333 -56.5,-23.5c-15.66667,-15.66667 -23.5,-34.5 -23.5,-56.5c0,-22 7.83333,-40.83333 23.5,-56.5c15.66667,-15.66667 34.5,-23.5 56.5,-23.5c22,0 40.83333,7.83333 56.5,23.5c15.66667,15.66667 23.5,34.5 23.5,56.5c0,22 -7.83333,40.83333 -23.5,56.5c-15.66667,15.66667 -34.5,23.5 -56.5,23.5zM480,-360c-28,0 -51.66667,-9.66667 -71,-29c-19.33333,-19.33333 -29,-43 -29,-71c0,-28 9.66667,-51.66667 29,-71c19.33333,-19.33333 43,-29 71,-29c28,0 51.66667,9.66667 71,29c19.33333,19.33333 29,43 29,71c0,28 -9.66667,51.66667 -29,71c-19.33333,19.33333 -43,29 -71,29zM284,-120c9.33333,-46 32.16667,-84.16667 68.5,-114.5c36.33333,-30.33333 78.83333,-45.5 127.5,-45.5c48.66667,0 91.16667,15.16667 127.5,45.5c36.33333,30.33333 59.16667,68.5 68.5,114.5zM80,-120c0,-44 15.66667,-81.66667 47,-113c31.33333,-31.33333 69,-47 113,-47c11.33333,0 22,1 32,3c10,2 19.66667,5 29,9c-20,19.33333 -36.66667,41.5 -50,66.5c-13.33333,25 -22.33333,52.16667 -27,81.5zM736,-120c-4.66667,-29.33333 -13.66667,-56.5 -27,-81.5c-13.33333,-25 -30,-47.16667 -50,-66.5c9.33333,-4 19,-7 29,-9c10,-2 20.66667,-3 32,-3c44,0 81.66667,15.66667 113,47c31.33333,31.33333 47,69 47,113zM88,-480l-48,-64l440,-336l160,122v-82h120v174l160,122l-48,64l-392,-299z"></path></g></g></svg>