<svg version="1.1" xmlns="http://www.w3.org/2000/svg" xmlns:xlink="http://www.w3.org/1999/xlink" width="24px" height="24px" viewBox="0,0,256,256"><g fill="#7a1ebd" fill-rule="nonzero" stroke="none" stroke-width="1" stroke-linecap="butt" stroke-linejoin="miter" stroke-miterlimit="10" stroke-dasharray="" stroke-dashoffset="0" font-family="none" font-weight="none" font-size="none" text-anchor="none" style="mix-blend-mode: normal"><g transform="translate(0,250.66667) scale(0.26667,0.26667)"><path d="M300,-720c-16.66667,0 -30.83333,5.83333 -42.5,17.5c-11.66667,11.66667 -17.5,25.83333 -17.5,42.5c0,16.66667 5.83333,30.83333 17.5,42.5c11.66667,11.66667 25.83333,17.5 42.5,17.5c16.66667,0 30.83333,-5.83333 42.5,-17.5c11.66667,-11.66667 17.5,-25.83333 17.5,-42.5c0,-16.66667 -5.83333,-30.83333 -17.5,-42.5c-11.66667,-11.66667 -25.83333,-17.5 -42.5,-17.5zM300,-320c-16.66667,0 -30.83333,5.83333 -42.5,17.5c-11.66667,11.66667 -17.5,25.83333 -17.5,42.5c0,16.66667 5.83333,30.83333 17.5,42.5c11.66667,11.66667 25.83333,17.5 42.5,17.5c16.66667,0 30.83333,-5.83333 42.5,-17.5c11.66667,-11.66667 17.5,-25.83333 17.5,-42.5c0,-16.66667 -5.83333,-30.83333 -17.5,-42.5c-11.66667,-11.66667 -25.83333,-17.5 -42.5,-17.5zM160,-840h640c11.33333,0 20.83333,3.83333 28.5,11.5c7.66667,7.66667 11.5,17.16667 11.5,28.5v280c0,11.33333 -3.83333,20.83333 -11.5,28.5c-7.66667,7.66667 -17.16667,11.5 -28.5,11.5h-640c-11.33333,0 -20.83333,-3.83333 -28.5,-11.5c-7.66667,-7.66667 -11.5,-17.16667 -11.5,-28.5v-280c0,-11.33333 3.83333,-20.83333 11.5,-28.5c7.66667,-7.66667 17.16667,-11.5 28.5,-11.5zM160,-440h640c11.33333,0 20.83333,3.83333 28.5,11.5c7.66667,7.66667 11.5,17.16667 11.5,28.5v280c0,11.33333 -3.83333,20.83333 -11.5,28.5c-7.66667,7.66667 -17.16667,11.5 -28.5,11.5h-640c-11.33333,0 -20.83333,-3.83333 -28.5,-11.5c-7.66667,-7.66667 -11.5,-17.16667 -11.5,-28.5v-280c0,-11.33333 3.83333,-20.83333 11.5,-28.5c7.66667,-7.66667 17.16667,-11.5 28.5,-11.5z"></path></g></g></svg>