<svg version="1.1" xmlns="http://www.w3.org/2000/svg" xmlns:xlink="http://www.w3.org/1999/xlink" width="24px" height="24px" viewBox="0,0,256,256"><g fill="#7a1ebd" fill-rule="nonzero" stroke="none" stroke-width="1" stroke-linecap="butt" stroke-linejoin="miter" stroke-miterlimit="10" stroke-dasharray="" stroke-dashoffset="0" font-family="none" font-weight="none" font-size="none" text-anchor="none" style="mix-blend-mode: normal"><g transform="translate(0,256) scale(0.26667,0.26667)"><path d="M440,-280h-160c-55.33333,0 -102.5,-19.5 -141.5,-58.5c-39,-39 -58.5,-86.16667 -58.5,-141.5c0,-55.33333 19.5,-102.5 58.5,-141.5c39,-39 86.16667,-58.5 141.5,-58.5h160v80h-160c-33.33333,0 -61.66667,11.66667 -85,35c-23.33333,23.33333 -35,51.66667 -35,85c0,33.33333 11.66667,61.66667 35,85c23.33333,23.33333 51.66667,35 85,35h160zM320,-440v-80h320v80zM520,-280v-80h160c33.33333,0 61.66667,-11.66667 85,-35c23.33333,-23.33333 35,-51.66667 35,-85c0,-33.33333 -11.66667,-61.66667 -35,-85c-23.33333,-23.33333 -51.66667,-35 -85,-35h-160v-80h160c55.33333,0 102.5,19.5 141.5,58.5c39,39 58.5,86.16667 58.5,141.5c0,55.33333 -19.5,102.5 -58.5,141.5c-39,39 -86.16667,58.5 -141.5,58.5z"></path></g></g></svg>