<svg version="1.1" xmlns="http://www.w3.org/2000/svg" xmlns:xlink="http://www.w3.org/1999/xlink" width="24px" height="24px" viewBox="0,0,256,256"><g fill="#7a1ebd" fill-rule="nonzero" stroke="none" stroke-width="1" stroke-linecap="butt" stroke-linejoin="miter" stroke-miterlimit="10" stroke-dasharray="" stroke-dashoffset="0" font-family="none" font-weight="none" font-size="none" text-anchor="none" style="mix-blend-mode: normal"><g transform="translate(0,256) scale(0.26667,0.26667)"><path d="M520,-120v-80h80v80zM440,-200v-200h80v200zM760,-320v-160h80v160zM680,-480v-80h80v80zM200,-400v-80h80v80zM120,-480v-80h80v80zM480,-760v-80h80v80zM180,-660h120v-120h-120zM120,-600v-240h240v240zM180,-180h120v-120h-120zM120,-120v-240h240v240zM660,-660h120v-120h-120zM600,-600v-240h240v240zM680,-120v-120h-80v-80h160v120h80v80zM520,-400v-80h160v80zM360,-400v-80h-80v-80h240v80h-80v80zM400,-600v-160h80v80h80v80zM210,-690v-60h60v60zM210,-210v-60h60v60zM690,-690v-60h60v60z"></path></g></g></svg>