<svg version="1.1" xmlns="http://www.w3.org/2000/svg" xmlns:xlink="http://www.w3.org/1999/xlink" width="24px" height="24px" viewBox="0,0,256,256"><g fill="#000fde" fill-rule="nonzero" stroke="none" stroke-width="1" stroke-linecap="butt" stroke-linejoin="miter" stroke-miterlimit="10" stroke-dasharray="" stroke-dashoffset="0" font-family="none" font-weight="none" font-size="none" text-anchor="none" style="mix-blend-mode: normal"><g transform="translate(0,256) scale(0.26667,0.26667)"><path d="M73,-536l-71,-71c64.66667,-62.66667 138.16667,-110.5 220.5,-143.5c82.33333,-33 168.16667,-49.5 257.5,-49.5c89.33333,0 175.16667,16.5 257.5,49.5c82.33333,33 155.83333,80.83333 220.5,143.5l-71,71c-54.66667,-52.66667 -117,-93.16667 -187,-121.5c-70,-28.33333 -143.33333,-42.5 -220,-42.5c-76.66667,0 -150,14.16667 -220,42.5c-70,28.33333 -132.33333,68.83333 -187,121.5zM423.5,-183.5c-15.66667,-15.66667 -23.5,-34.5 -23.5,-56.5c0,-22 7.83333,-40.83333 23.5,-56.5c15.66667,-15.66667 34.5,-23.5 56.5,-23.5c22,0 40.83333,7.83333 56.5,23.5c15.66667,15.66667 23.5,34.5 23.5,56.5c0,22 -7.83333,40.83333 -23.5,56.5c-15.66667,15.66667 -34.5,23.5 -56.5,23.5c-22,0 -40.83333,-7.83333 -56.5,-23.5zM298,-309l-70,-71c34,-32 72.66667,-56.66667 116,-74c43.33333,-17.33333 88.66667,-26 136,-26c28.66667,0 56.66667,3.16667 84,9.5c27.33333,6.33333 53.66667,15.83333 79,28.5c-14,10 -26.66667,21.83333 -38,35.5c-11.33333,13.66667 -20.66667,28.5 -28,44.5c-15.33333,-6 -31,-10.5 -47,-13.5c-16,-3 -32.66667,-4.5 -50,-4.5c-34,0 -66.5,6 -97.5,18c-31,12 -59.16667,29.66667 -84.5,53zM186,-422l-70,-71c49.33333,-47.33333 105.33333,-83.66667 168,-109c62.66667,-25.33333 128.33333,-38 197,-38c68.66667,0 134.16667,12.5 196.5,37.5c62.33333,25 118.16667,61.16667 167.5,108.5l-23,24c-10,-3.33333 -20,-5.83333 -30,-7.5c-10,-1.66667 -20.66667,-2.5 -32,-2.5c-9.33333,0 -18.16667,0.66667 -26.5,2c-8.33333,1.33333 -16.5,3 -24.5,5c-34,-21.33333 -70.5,-37.83333 -109.5,-49.5c-39,-11.66667 -78.83333,-17.5 -119.5,-17.5c-55.33333,0 -108.16667,10.16667 -158.5,30.5c-50.33333,20.33333 -95.5,49.5 -135.5,87.5zM720,-160v-80h-80v-80h80v-80h80v80h80v80h-80v80z"></path></g></g></svg>