<svg version="1.1" xmlns="http://www.w3.org/2000/svg" xmlns:xlink="http://www.w3.org/1999/xlink" width="24px" height="24px" viewBox="0,0,256,256"><g fill="#7a1ebd" fill-rule="nonzero" stroke="none" stroke-width="1" stroke-linecap="butt" stroke-linejoin="miter" stroke-miterlimit="10" stroke-dasharray="" stroke-dashoffset="0" font-family="none" font-weight="none" font-size="none" text-anchor="none" style="mix-blend-mode: normal"><g transform="translate(0,256) scale(0.26667,0.26667)"><path d="M560,-160v-80h120c11.33333,0 20.83333,-3.83333 28.5,-11.5c7.66667,-7.66667 11.5,-17.16667 11.5,-28.5v-80c0,-25.33333 7.33333,-48.33333 22,-69c14.66667,-20.66667 34,-35.33333 58,-44v-14c-24,-8.66667 -43.33333,-23.33333 -58,-44c-14.66667,-20.66667 -22,-43.66667 -22,-69v-80c0,-11.33333 -3.83333,-20.83333 -11.5,-28.5c-7.66667,-7.66667 -17.16667,-11.5 -28.5,-11.5h-120v-80h120c33.33333,0 61.66667,11.66667 85,35c23.33333,23.33333 35,51.66667 35,85v80c0,11.33333 3.83333,20.83333 11.5,28.5c7.66667,7.66667 17.16667,11.5 28.5,11.5h40v160h-40c-11.33333,0 -20.83333,3.83333 -28.5,11.5c-7.66667,7.66667 -11.5,17.16667 -11.5,28.5v80c0,33.33333 -11.66667,61.66667 -35,85c-23.33333,23.33333 -51.66667,35 -85,35zM280,-160c-33.33333,0 -61.66667,-11.66667 -85,-35c-23.33333,-23.33333 -35,-51.66667 -35,-85v-80c0,-11.33333 -3.83333,-20.83333 -11.5,-28.5c-7.66667,-7.66667 -17.16667,-11.5 -28.5,-11.5h-40v-160h40c11.33333,0 20.83333,-3.83333 28.5,-11.5c7.66667,-7.66667 11.5,-17.16667 11.5,-28.5v-80c0,-33.33333 11.66667,-61.66667 35,-85c23.33333,-23.33333 51.66667,-35 85,-35h120v80h-120c-11.33333,0 -20.83333,3.83333 -28.5,11.5c-7.66667,7.66667 -11.5,17.16667 -11.5,28.5v80c0,25.33333 -7.33333,48.33333 -22,69c-14.66667,20.66667 -34,35.33333 -58,44v14c24,8.66667 43.33333,23.33333 58,44c14.66667,20.66667 22,43.66667 22,69v80c0,11.33333 3.83333,20.83333 11.5,28.5c7.66667,7.66667 17.16667,11.5 28.5,11.5h120v80z"></path></g></g></svg>