<svg version="1.1" xmlns="http://www.w3.org/2000/svg" xmlns:xlink="http://www.w3.org/1999/xlink" width="24px" height="24px" viewBox="0,0,256,256"><g fill="#7a1ebd" fill-rule="nonzero" stroke="none" stroke-width="1" stroke-linecap="butt" stroke-linejoin="miter" stroke-miterlimit="10" stroke-dasharray="" stroke-dashoffset="0" font-family="none" font-weight="none" font-size="none" text-anchor="none" style="mix-blend-mode: normal"><g transform="translate(0,261.33333) scale(0.26667,0.26667)"><path d="M280,-120c-55.33333,0 -102.5,-19.5 -141.5,-58.5c-39,-39 -58.5,-86.16667 -58.5,-141.5c0,-48.66667 15.16667,-91.16667 45.5,-127.5c30.33333,-36.33333 68.5,-59.16667 114.5,-68.5v83c-23.33333,8 -42.5,22.33333 -57.5,43c-15,20.66667 -22.5,44 -22.5,70c0,33.33333 11.66667,61.66667 35,85c23.33333,23.33333 51.66667,35 85,35c33.33333,0 61.66667,-11.66667 85,-35c23.33333,-23.33333 35,-51.66667 35,-85v-40h235c5.33333,-6 11.83333,-10.83333 19.5,-14.5c7.66667,-3.66667 16.16667,-5.5 25.5,-5.5c16.66667,0 30.83333,5.83333 42.5,17.5c11.66667,11.66667 17.5,25.83333 17.5,42.5c0,16.66667 -5.83333,30.83333 -17.5,42.5c-11.66667,11.66667 -25.83333,17.5 -42.5,17.5c-9.33333,0 -17.83333,-1.83333 -25.5,-5.5c-7.66667,-3.66667 -14.16667,-8.5 -19.5,-14.5h-159c-9.33333,46 -32.16667,84.16667 -68.5,114.5c-36.33333,30.33333 -78.83333,45.5 -127.5,45.5zM680,-120c-37.33333,0 -71.16667,-9.16667 -101.5,-27.5c-30.33333,-18.33333 -54.16667,-42.5 -71.5,-72.5h107c9.33333,6.66667 19.66667,11.66667 31,15c11.33333,3.33333 23,5 35,5c33.33333,0 61.66667,-11.66667 85,-35c23.33333,-23.33333 35,-51.66667 35,-85c0,-33.33333 -11.66667,-61.66667 -35,-85c-23.33333,-23.33333 -51.66667,-35 -85,-35c-13.33333,0 -25.66667,1.83333 -37,5.5c-11.33333,3.66667 -22,9.16667 -32,16.5l-122,-203c-14,-2.66667 -25.66667,-9.33333 -35,-20c-9.33333,-10.66667 -14,-23.66667 -14,-39c0,-16.66667 5.83333,-30.83333 17.5,-42.5c11.66667,-11.66667 25.83333,-17.5 42.5,-17.5c16.66667,0 30.83333,5.83333 42.5,17.5c11.66667,11.66667 17.5,25.83333 17.5,42.5v8.5c0,2.33333 -0.66667,5.16667 -2,8.5l87,146c5.33333,-1.33333 11,-2.16667 17,-2.5c6,-0.33333 12,-0.5 18,-0.5c55.33333,0 102.5,19.5 141.5,58.5c39,39 58.5,86.16667 58.5,141.5c0,55.33333 -19.5,102.5 -58.5,141.5c-39,39 -86.16667,58.5 -141.5,58.5zM280,-260c-16.66667,0 -30.83333,-5.83333 -42.5,-17.5c-11.66667,-11.66667 -17.5,-25.83333 -17.5,-42.5c0,-14.66667 4.66667,-27.33333 14,-38c9.33333,-10.66667 20.66667,-17.66667 34,-21l94,-156c-19.33333,-18 -34.5,-39.5 -45.5,-64.5c-11,-25 -16.5,-51.83333 -16.5,-80.5c0,-55.33333 19.5,-102.5 58.5,-141.5c39,-39 86.16667,-58.5 141.5,-58.5c55.33333,0 102.5,19.5 141.5,58.5c39,39 58.5,86.16667 58.5,141.5h-80c0,-33.33333 -11.66667,-61.66667 -35,-85c-23.33333,-23.33333 -51.66667,-35 -85,-35c-33.33333,0 -61.66667,11.66667 -85,35c-23.33333,23.33333 -35,51.66667 -35,85c0,28.66667 8.66667,53.83333 26,75.5c17.33333,21.66667 39.33333,35.5 66,41.5l-135,225c1.33333,3.33333 2.16667,6.33333 2.5,9c0.33333,2.66667 0.5,5.66667 0.5,9c0,16.66667 -5.83333,30.83333 -17.5,42.5c-11.66667,11.66667 -25.83333,17.5 -42.5,17.5z"></path></g></g></svg>