<svg version="1.1" xmlns="http://www.w3.org/2000/svg" xmlns:xlink="http://www.w3.org/1999/xlink" width="24px" height="24px" viewBox="0,0,256,256"><g fill="#7a1ebd" fill-rule="nonzero" stroke="none" stroke-width="1" stroke-linecap="butt" stroke-linejoin="miter" stroke-miterlimit="10" stroke-dasharray="" stroke-dashoffset="0" font-family="none" font-weight="none" font-size="none" text-anchor="none" style="mix-blend-mode: normal"><g transform="translate(0,256) scale(0.26667,0.26667)"><path d="M735,-567c70,-31.33333 105,-69 105,-113c0,-44 -35,-81.66667 -105,-113c-70,-31.33333 -155,-47 -255,-47c-100,0 -185,15.66667 -255,47c-70,31.33333 -105,69 -105,113c0,44 35,81.66667 105,113c70,31.33333 155,47 255,47c100,0 185,-15.66667 255,-47zM582.5,-428.5c41,-5.66667 80.5,-14.83333 118.5,-27.5c38,-12.66667 70.66667,-29.16667 98,-49.5c27.33333,-20.33333 41,-45.16667 41,-74.5v100c0,29.33333 -13.66667,54.16667 -41,74.5c-27.33333,20.33333 -60,36.83333 -98,49.5c-38,12.66667 -77.5,21.83333 -118.5,27.5c-41,5.66667 -75.16667,8.5 -102.5,8.5c-27.33333,0 -61.5,-2.83333 -102.5,-8.5c-41,-5.66667 -80.5,-14.83333 -118.5,-27.5c-38,-12.66667 -70.66667,-29.16667 -98,-49.5c-27.33333,-20.33333 -41,-45.16667 -41,-74.5v-100c0,29.33333 13.66667,54.16667 41,74.5c27.33333,20.33333 60,36.83333 98,49.5c38,12.66667 77.5,21.83333 118.5,27.5c41,5.66667 75.16667,8.5 102.5,8.5c27.33333,0 61.5,-2.83333 102.5,-8.5zM582.5,-228.5c41,-5.66667 80.5,-14.83333 118.5,-27.5c38,-12.66667 70.66667,-29.16667 98,-49.5c27.33333,-20.33333 41,-45.16667 41,-74.5v100c0,29.33333 -13.66667,54.16667 -41,74.5c-27.33333,20.33333 -60,36.83333 -98,49.5c-38,12.66667 -77.5,21.83333 -118.5,27.5c-41,5.66667 -75.16667,8.5 -102.5,8.5c-27.33333,0 -61.5,-2.83333 -102.5,-8.5c-41,-5.66667 -80.5,-14.83333 -118.5,-27.5c-38,-12.66667 -70.66667,-29.16667 -98,-49.5c-27.33333,-20.33333 -41,-45.16667 -41,-74.5v-100c0,29.33333 13.66667,54.16667 41,74.5c27.33333,20.33333 60,36.83333 98,49.5c38,12.66667 77.5,21.83333 118.5,27.5c41,5.66667 75.16667,8.5 102.5,8.5c27.33333,0 61.5,-2.83333 102.5,-8.5z"></path></g></g></svg>