<svg version="1.1" xmlns="http://www.w3.org/2000/svg" xmlns:xlink="http://www.w3.org/1999/xlink" width="24px" height="24px" viewBox="0,0,256,256"><g fill="#1ed3ff" fill-rule="nonzero" stroke="none" stroke-width="1" stroke-linecap="butt" stroke-linejoin="miter" stroke-miterlimit="10" stroke-dasharray="" stroke-dashoffset="0" font-family="none" font-weight="none" font-size="none" text-anchor="none" style="mix-blend-mode: normal"><g transform="translate(0,256) scale(0.26667,0.26667)"><path d="M440,-160h-180c-60.66667,0 -112.5,-21 -155.5,-63c-43,-42 -64.5,-93.33333 -64.5,-154c0,-52 15.66667,-98.33333 47,-139c31.33333,-40.66667 72.33333,-66.66667 123,-78c16.66667,-61.33333 50,-111 100,-149c50,-38 106.66667,-57 170,-57c78,0 144.16667,27.16667 198.5,81.5c54.33333,54.33333 81.5,120.5 81.5,198.5c46,5.33333 84.16667,25.16667 114.5,59.5c30.33333,34.33333 45.5,74.5 45.5,120.5c0,50 -17.5,92.5 -52.5,127.5c-35,35 -77.5,52.5 -127.5,52.5h-220v-286l64,62l56,-56l-160,-160l-160,160l56,56l64,-62z"></path></g></g></svg>