<svg version="1.1" xmlns="http://www.w3.org/2000/svg" xmlns:xlink="http://www.w3.org/1999/xlink" width="24px" height="24px" viewBox="0,0,256,256"><g fill="#7a1ebd" fill-rule="nonzero" stroke="none" stroke-width="1" stroke-linecap="butt" stroke-linejoin="miter" stroke-miterlimit="10" stroke-dasharray="" stroke-dashoffset="0" font-family="none" font-weight="none" font-size="none" text-anchor="none" style="mix-blend-mode: normal"><g transform="translate(0,256) scale(0.26667,0.26667)"><path d="M798,-120c-83.33333,0 -165.66667,-18.16667 -247,-54.5c-81.33333,-36.33333 -155.33333,-87.83333 -222,-154.5c-66.66667,-66.66667 -118.16667,-140.66667 -154.5,-222c-36.33333,-81.33333 -54.5,-163.66667 -54.5,-247c0,-12 4,-22 12,-30c8,-8 18,-12 30,-12h162c9.33333,0 17.66667,3.16667 25,9.5c7.33333,6.33333 11.66667,13.83333 13,22.5l26,140c1.33333,10.66667 1,19.66667 -1,27c-2,7.33333 -5.66667,13.66667 -11,19l-97,98c13.33333,24.66667 29.16667,48.5 47.5,71.5c18.33333,23 38.5,45.16667 60.5,66.5c20.66667,20.66667 42.33333,39.83333 65,57.5c22.66667,17.66667 46.66667,33.83333 72,48.5l94,-94c6,-6 13.83333,-10.5 23.5,-13.5c9.66667,-3 19.16667,-3.83333 28.5,-2.5l138,28c9.33333,2.66667 17,7.5 23,14.5c6,7 9,14.83333 9,23.5v162c0,12 -4,22 -12,30c-8,8 -18,12 -30,12z"></path></g></g></svg>