<svg version="1.1" xmlns="http://www.w3.org/2000/svg" xmlns:xlink="http://www.w3.org/1999/xlink" width="24px" height="24px" viewBox="0,0,256,256"><g fill="#7a1ebd" fill-rule="nonzero" stroke="none" stroke-width="1" stroke-linecap="butt" stroke-linejoin="miter" stroke-miterlimit="10" stroke-dasharray="" stroke-dashoffset="0" font-family="none" font-weight="none" font-size="none" text-anchor="none" style="mix-blend-mode: normal"><g transform="translate(0,256) scale(0.26667,0.26667)"><path d="M707,-707c62,62 93,137.66667 93,227c0,89.33333 -31,165 -93,227c-62,62 -137.66667,93 -227,93c-89.33333,0 -165,-31 -227,-93c-62,-62 -93,-137.66667 -93,-227c0,-89.33333 31,-165 93,-227c62,-62 137.66667,-93 227,-93c89.33333,0 165,31 227,93zM566,-367.5c25.33333,-18.33333 43.33333,-42.5 54,-72.5h-280c10.66667,30 28.66667,54.16667 54,72.5c25.33333,18.33333 54,27.5 86,27.5c32,0 60.66667,-9.16667 86,-27.5zM351.5,-531.5c7.66667,7.66667 17.16667,11.5 28.5,11.5c11.33333,0 20.83333,-3.83333 28.5,-11.5c7.66667,-7.66667 11.5,-17.16667 11.5,-28.5c0,-11.33333 -3.83333,-20.83333 -11.5,-28.5c-7.66667,-7.66667 -17.16667,-11.5 -28.5,-11.5c-11.33333,0 -20.83333,3.83333 -28.5,11.5c-7.66667,7.66667 -11.5,17.16667 -11.5,28.5c0,11.33333 3.83333,20.83333 11.5,28.5zM551.5,-531.5c7.66667,7.66667 17.16667,11.5 28.5,11.5c11.33333,0 20.83333,-3.83333 28.5,-11.5c7.66667,-7.66667 11.5,-17.16667 11.5,-28.5c0,-11.33333 -3.83333,-20.83333 -11.5,-28.5c-7.66667,-7.66667 -17.16667,-11.5 -28.5,-11.5c-11.33333,0 -20.83333,3.83333 -28.5,11.5c-7.66667,7.66667 -11.5,17.16667 -11.5,28.5c0,11.33333 3.83333,20.83333 11.5,28.5zM40,-720v-120c0,-22 7.83333,-40.83333 23.5,-56.5c15.66667,-15.66667 34.5,-23.5 56.5,-23.5h120v80h-120v120zM240,-40h-120c-22,0 -40.83333,-7.83333 -56.5,-23.5c-15.66667,-15.66667 -23.5,-34.5 -23.5,-56.5v-120h80v120h120zM720,-40v-80h120v-120h80v120c0,22 -7.83333,40.83333 -23.5,56.5c-15.66667,15.66667 -34.5,23.5 -56.5,23.5zM840,-720v-120h-120v-80h120c22,0 40.83333,7.83333 56.5,23.5c15.66667,15.66667 23.5,34.5 23.5,56.5v120z"></path></g></g></svg>