<svg version="1.1" xmlns="http://www.w3.org/2000/svg" xmlns:xlink="http://www.w3.org/1999/xlink" width="24px" height="24px" viewBox="0,0,256,256"><g fill="#7a1ebd" fill-rule="nonzero" stroke="none" stroke-width="1" stroke-linecap="butt" stroke-linejoin="miter" stroke-miterlimit="10" stroke-dasharray="" stroke-dashoffset="0" font-family="none" font-weight="none" font-size="none" text-anchor="none" style="mix-blend-mode: normal"><g transform="translate(-13.33333,237.33333) scale(0.26667,0.26667)"><path d="M440,-480c-44,0 -81.66667,-15.66667 -113,-47c-31.33333,-31.33333 -47,-69 -47,-113c0,-44 15.66667,-81.66667 47,-113c31.33333,-31.33333 69,-47 113,-47c44,0 81.66667,15.66667 113,47c31.33333,31.33333 47,69 47,113c0,44 -15.66667,81.66667 -47,113c-31.33333,31.33333 -69,47 -113,47zM884,-20l-128,-128c-14,8 -29,14.66667 -45,20c-16,5.33333 -33,8 -51,8c-50,0 -92.5,-17.5 -127.5,-52.5c-35,-35 -52.5,-77.5 -52.5,-127.5c0,-50 17.5,-92.5 52.5,-127.5c35,-35 77.5,-52.5 127.5,-52.5c50,0 92.5,17.5 127.5,52.5c35,35 52.5,77.5 52.5,127.5c0,18 -2.66667,35 -8,51c-5.33333,16 -12,31 -20,45l128,128zM731,-229c19.33333,-19.33333 29,-43 29,-71c0,-28 -9.66667,-51.66667 -29,-71c-19.33333,-19.33333 -43,-29 -71,-29c-28,0 -51.66667,9.66667 -71,29c-19.33333,19.33333 -29,43 -29,71c0,28 9.66667,51.66667 29,71c19.33333,19.33333 43,29 71,29c28,0 51.66667,-9.66667 71,-29zM441,-440c-28,41.33333 -42,88 -42,140c0,52 14,98.66667 42,140h-321v-111c0,-22.66667 5.66667,-43.66667 17,-63c11.33333,-19.33333 27,-34 47,-44c34,-17.33333 72.33333,-32 115,-44c42.66667,-12 90,-18 142,-18z"></path></g></g></svg>