<svg version="1.1" xmlns="http://www.w3.org/2000/svg" xmlns:xlink="http://www.w3.org/1999/xlink" width="24px" height="24px" viewBox="0,0,256,256"><g fill="#7a1ebd" fill-rule="nonzero" stroke="none" stroke-width="1" stroke-linecap="butt" stroke-linejoin="miter" stroke-miterlimit="10" stroke-dasharray="" stroke-dashoffset="0" font-family="none" font-weight="none" font-size="none" text-anchor="none" style="mix-blend-mode: normal"><g transform="translate(0,256) scale(0.26667,0.26667)"><path d="M324,-111.5c-48.66667,-21 -91,-49.5 -127,-85.5c-36,-36 -64.5,-78.33333 -85.5,-127c-21,-48.66667 -31.5,-100.66667 -31.5,-156c0,-55.33333 10.5,-107.33333 31.5,-156c21,-48.66667 49.5,-91 85.5,-127c36,-36 78.33333,-64.5 127,-85.5c48.66667,-21 100.66667,-31.5 156,-31.5c13.33333,0 26.66667,0.83333 40,2.5c13.33333,1.66667 26.66667,3.16667 40,4.5v82c-13.33333,-1.33333 -26.66667,-2.83333 -40,-4.5c-13.33333,-1.66667 -26.66667,-2.5 -40,-2.5c-17.33333,24 -32.33333,49.16667 -45,75.5c-12.66667,26.33333 -23,53.83333 -31,82.5h116v80h-134c-2,13.33333 -3.5,26.66667 -4.5,40c-1,13.33333 -1.5,26.66667 -1.5,40c0,13.33333 0.5,26.66667 1.5,40c1,13.33333 2.5,26.66667 4.5,40h188c2,-13.33333 3.5,-26.66667 4.5,-40c1,-13.33333 1.5,-26.66667 1.5,-40c0,-13.33333 -0.5,-26.66667 -1.5,-40c-1,-13.33333 -2.5,-26.66667 -4.5,-40h80c2,13.33333 3.5,26.66667 4.5,40c1,13.33333 1.5,26.66667 1.5,40c0,13.33333 -0.5,26.66667 -1.5,40c-1,13.33333 -2.5,26.66667 -4.5,40h136c3.33333,-13.33333 5.83333,-26.66667 7.5,-40c1.66667,-13.33333 2.5,-26.66667 2.5,-40c0,-13.33333 -0.83333,-26.66667 -2.5,-40c-1.66667,-13.33333 -4.16667,-26.66667 -7.5,-40h82c2.66667,13.33333 4.66667,26.66667 6,40c1.33333,13.33333 2,26.66667 2,40c0,55.33333 -10.5,107.33333 -31.5,156c-21,48.66667 -49.5,91 -85.5,127c-36,36 -78.33333,64.5 -127,85.5c-48.66667,21 -100.66667,31.5 -156,31.5c-55.33333,0 -107.33333,-10.5 -156,-31.5zM170,-400h136c-2,-13.33333 -3.5,-26.66667 -4.5,-40c-1,-13.33333 -1.5,-26.66667 -1.5,-40c0,-13.33333 0.5,-26.66667 1.5,-40c1,-13.33333 2.5,-26.66667 4.5,-40h-136c-3.33333,13.33333 -5.83333,26.66667 -7.5,40c-1.66667,13.33333 -2.5,26.66667 -2.5,40c0,13.33333 0.83333,26.66667 2.5,40c1.66667,13.33333 4.16667,26.66667 7.5,40zM376,-178c-12,-22.66667 -22.5,-45.83333 -31.5,-69.5c-9,-23.66667 -16.5,-47.83333 -22.5,-72.5h-118c19.33333,34 43.66667,63.16667 73,87.5c29.33333,24.33333 62.33333,42.5 99,54.5zM204,-640h118c6,-24.66667 13.5,-48.83333 22.5,-72.5c9,-23.66667 19.5,-46.83333 31.5,-69.5c-36.66667,12 -69.66667,30.16667 -99,54.5c-29.33333,24.33333 -53.66667,53.5 -73,87.5zM480,-162c17.33333,-24 32.33333,-49.16667 45,-75.5c12.66667,-26.33333 23,-53.83333 31,-82.5h-152c8,28.66667 18.33333,56.16667 31,82.5c12.66667,26.33333 27.66667,51.5 45,75.5zM584,-178c36.66667,-12 69.66667,-30.16667 99,-54.5c29.33333,-24.33333 53.66667,-53.5 73,-87.5h-118c-6,24.66667 -13.5,48.83333 -22.5,72.5c-9,23.66667 -19.5,46.83333 -31.5,69.5zM640,-640v-240h240v240zM760,-760h80v-80h-80z"></path></g></g></svg>