<svg version="1.1" xmlns="http://www.w3.org/2000/svg" xmlns:xlink="http://www.w3.org/1999/xlink" width="24px" height="24px" viewBox="0,0,256,256"><g fill="#7a1ebd" fill-rule="nonzero" stroke="none" stroke-width="1" stroke-linecap="butt" stroke-linejoin="miter" stroke-miterlimit="10" stroke-dasharray="" stroke-dashoffset="0" font-family="none" font-weight="none" font-size="none" text-anchor="none" style="mix-blend-mode: normal"><g transform="translate(0,256) scale(0.26667,0.26667)"><path d="M109,-531l-85,-85c61.33333,-59.33333 131.33333,-104.83333 210,-136.5c78.66667,-31.66667 160.66667,-47.5 246,-47.5c85.33333,0 167.33333,15.83333 246,47.5c78.66667,31.66667 148.66667,77.16667 210,136.5l-85,85c-50,-48 -107,-84.83333 -171,-110.5c-64,-25.66667 -130.66667,-38.5 -200,-38.5c-69.33333,0 -136,12.83333 -200,38.5c-64,25.66667 -121,62.5 -171,110.5zM278,-362l-84,-84c39.33333,-36.66667 83.5,-64.83333 132.5,-84.5c49,-19.66667 100.16667,-29.5 153.5,-29.5c53.33333,0 104.5,9.83333 153.5,29.5c49,19.66667 93.16667,47.83333 132.5,84.5l-84,84c-28,-25.33333 -59.16667,-44.66667 -93.5,-58c-34.33333,-13.33333 -70.5,-20 -108.5,-20c-38,0 -74.16667,6.66667 -108.5,20c-34.33333,13.33333 -65.5,32.66667 -93.5,58zM423.5,-183.5c-15.66667,-15.66667 -23.5,-34.5 -23.5,-56.5c0,-22 7.83333,-40.83333 23.5,-56.5c15.66667,-15.66667 34.5,-23.5 56.5,-23.5c22,0 40.83333,7.83333 56.5,23.5c15.66667,15.66667 23.5,34.5 23.5,56.5c0,22 -7.83333,40.83333 -23.5,56.5c-15.66667,15.66667 -34.5,23.5 -56.5,23.5c-22,0 -40.83333,-7.83333 -56.5,-23.5z"></path></g></g></svg>