<svg version="1.1" xmlns="http://www.w3.org/2000/svg" xmlns:xlink="http://www.w3.org/1999/xlink" width="24px" height="24px" viewBox="0,0,256,256"><g fill="#a50707" fill-rule="nonzero" stroke="none" stroke-width="1" stroke-linecap="butt" stroke-linejoin="miter" stroke-miterlimit="10" stroke-dasharray="" stroke-dashoffset="0" font-family="none" font-weight="none" font-size="none" text-anchor="none" style="mix-blend-mode: normal"><g transform="translate(0,261.33333) scale(0.26667,0.26667)"><path d="M240,-80c-22,0 -40.83333,-7.83333 -56.5,-23.5c-15.66667,-15.66667 -23.5,-34.5 -23.5,-56.5v-400c0,-22 7.83333,-40.83333 23.5,-56.5c15.66667,-15.66667 34.5,-23.5 56.5,-23.5h40v-80c0,-55.33333 19.5,-102.5 58.5,-141.5c39,-39 86.16667,-58.5 141.5,-58.5c55.33333,0 102.5,19.5 141.5,58.5c39,39 58.5,86.16667 58.5,141.5v80h40c22,0 40.83333,7.83333 56.5,23.5c15.66667,15.66667 23.5,34.5 23.5,56.5v400c0,22 -7.83333,40.83333 -23.5,56.5c-15.66667,15.66667 -34.5,23.5 -56.5,23.5zM536.5,-303.5c15.66667,-15.66667 23.5,-34.5 23.5,-56.5c0,-22 -7.83333,-40.83333 -23.5,-56.5c-15.66667,-15.66667 -34.5,-23.5 -56.5,-23.5c-22,0 -40.83333,7.83333 -56.5,23.5c-15.66667,15.66667 -23.5,34.5 -23.5,56.5c0,22 7.83333,40.83333 23.5,56.5c15.66667,15.66667 34.5,23.5 56.5,23.5c22,0 40.83333,-7.83333 56.5,-23.5zM360,-640h240v-80c0,-33.33333 -11.66667,-61.66667 -35,-85c-23.33333,-23.33333 -51.66667,-35 -85,-35c-33.33333,0 -61.66667,11.66667 -85,35c-23.33333,23.33333 -35,51.66667 -35,85z"></path></g></g></svg>